#define shade_hover_width 14
#define shade_hover_height 14
static unsigned char shade_hover_bits[] = {
   0x00, 0x00, 0xf0, 0x03, 0xf8, 0x07, 0xfc, 0x0f, 0x3e, 0x1f, 0x1e, 0x1e,
   0x0e, 0x1c, 0x3e, 0x1f, 0x3e, 0x1f, 0x3e, 0x1f, 0x3c, 0x0f, 0xf8, 0x07,
   0xf0, 0x03, 0x00, 0x00 };
