#define desk_width 14
#define desk_height 14
static unsigned char desk_bits[] = {
   0x00, 0x00, 0xf0, 0x03, 0xf8, 0x07, 0x1c, 0x0e, 0x0e, 0x1c, 0x06, 0x18,
   0x06, 0x18, 0x06, 0x18, 0x06, 0x18, 0x0e, 0x1c, 0x1c, 0x0e, 0xf8, 0x07,
   0xf0, 0x03, 0x00, 0x00 };
