#define iconify_hover_width 14
#define iconify_hover_height 14
static unsigned char iconify_hover_bits[] = {
   0x00, 0x00, 0xf0, 0x03, 0xf8, 0x07, 0xfc, 0x0f, 0xfe, 0x1f, 0xfe, 0x1f,
   0x0e, 0x1c, 0x0e, 0x1c, 0xfe, 0x1f, 0xfe, 0x1f, 0xfc, 0x0f, 0xf8, 0x07,
   0xf0, 0x03, 0x00, 0x00 };
