#define max_toggled_width 14
#define max_toggled_height 14
static unsigned char max_toggled_bits[] = {
   0x00, 0x00, 0xf0, 0x03, 0xf8, 0x06, 0xfc, 0x0c, 0xfe, 0x18, 0xfe, 0x10,
   0xfe, 0x1f, 0xfe, 0x1f, 0xc2, 0x1f, 0xc6, 0x1f, 0xcc, 0x0f, 0xd8, 0x07,
   0xf0, 0x03, 0x00, 0x00 };
