#define bullet_width 8
#define bullet_height 7
static unsigned char bullet_bits[] = {
   0x10, 0x30, 0x60, 0x8f, 0x60, 0x30, 0x10 };
