#define iconify_width 16
#define iconify_height 16
static unsigned char iconify_bits[] = {
   0x00, 0x00, 0x00, 0x00, 0x00, 0x00, 0x00, 0x00, 0x06, 0x60, 0x0c, 0x30,
   0x18, 0x18, 0x30, 0x0c, 0x60, 0x06, 0xc0, 0x03, 0x80, 0x01, 0x00, 0x00,
   0x00, 0x00, 0x00, 0x00, 0x00, 0x00, 0x00, 0x00 };
