#define max_toggled_hover_width 16
#define max_toggled_hover_height 16
static unsigned char max_toggled_hover_bits[] = {
   0xff, 0xff, 0x01, 0x80, 0x81, 0x81, 0xc1, 0x83, 0x61, 0x86, 0x31, 0x8c,
   0x19, 0x98, 0x0d, 0xb0, 0x0d, 0xb0, 0x19, 0x98, 0x31, 0x8c, 0x61, 0x86,
   0xc1, 0x83, 0x81, 0x81, 0x01, 0x80, 0xff, 0xff };
