#define bullet_width 6
#define bullet_height 5
static unsigned char bullet_bits[] = {
   0x27, 0x2f, 0x3c, 0x38, 0x3e };
