#define desk_toggled_width 18
#define desk_toggled_height 18
static unsigned char desk_toggled_bits[] = {
   0xc0, 0x0f, 0x00, 0xf0, 0x3f, 0x00, 0xf8, 0x7f, 0x00, 0xfc, 0xff, 0x00,
   0x8e, 0xc7, 0x01, 0x8e, 0xc7, 0x01, 0x8f, 0xc7, 0x03, 0xff, 0xff, 0x03,
   0xff, 0xff, 0x03, 0xff, 0xff, 0x03, 0xff, 0xff, 0x03, 0x8f, 0xc7, 0x03,
   0x8e, 0xc7, 0x01, 0x8e, 0xc7, 0x01, 0xfc, 0xff, 0x00, 0xf8, 0x7f, 0x00,
   0xf0, 0x3f, 0x00, 0xc0, 0x0f, 0x00 };
