#define bullet_width 8
#define bullet_height 9
static unsigned char bullet_bits[] = {
   0x0c, 0x18, 0x30, 0x60, 0xc0, 0x60, 0x30, 0x18, 0x0c };
