#define close_hover_width 14
#define close_hover_height 14
static unsigned char close_hover_bits[] = {
   0x00, 0x00, 0xf0, 0x03, 0xf8, 0x07, 0xfc, 0x0f, 0xce, 0x1c, 0x0e, 0x1c,
   0x1e, 0x1e, 0x1e, 0x1e, 0x0e, 0x1c, 0xce, 0x1c, 0xfc, 0x0f, 0xf8, 0x07,
   0xf0, 0x03, 0x00, 0x00 };
