#define desk_hover_width 14
#define desk_hover_height 14
static unsigned char desk_hover_bits[] = {
   0x00, 0x00, 0xf0, 0x03, 0xf8, 0x07, 0xfc, 0x0f, 0xfe, 0x1f, 0xde, 0x1d,
   0x1e, 0x1c, 0x06, 0x1c, 0x1e, 0x1c, 0xde, 0x1d, 0xfc, 0x0f, 0xf8, 0x07,
   0xf0, 0x03, 0x00, 0x00 };
